<svg width="136" height="32" viewBox="0 0 136 32" fill="none" xmlns="http://www.w3.org/2000/svg">
<path d="M8.24629 0L0 5.20509V26.7958L8.24629 32H16.2445L7.99971 26.7958V5.20509L16.2445 0H8.24629V0Z" fill="#2A8BF4"/>
<path d="M19.7116 0L11.4656 5.20509V26.7958L19.7116 32H27.7113L19.4664 26.7958V5.20509L27.7113 0H19.7116V0Z" fill="#2A8BF4"/>
<path d="M35.1231 27.6901V5.95978H50.4994V10.0331H39.749V14.6261H50.2723V18.6994H39.749V23.6168H50.4994V27.6901H35.1231V27.6901Z" fill="#121F26"/>
<path d="M70.3061 16.8413C70.3061 12.9976 67.9598 10.0331 63.4979 10.0331H59.5558V23.6168H63.4979C67.7983 23.6168 70.3061 20.5222 70.3061 16.8413V16.8413ZM54.9299 27.6901V5.95978H63.4979C70.3061 5.95978 75.0303 10.2931 75.0303 16.8413C75.0303 23.3897 70.3061 27.6901 63.4979 27.6901H54.9299V27.6901Z" fill="#121F26"/>
<path d="M77.667 25.6377L79.4595 22.7387C80.5989 23.8136 82.9452 24.8895 84.8993 24.8895C86.6918 24.8895 87.5382 24.1719 87.5382 23.1943C87.5382 20.5891 78.1881 22.706 78.1881 16.5158C78.1881 13.8768 80.5015 11.5646 84.6381 11.5646C87.31 11.5646 89.4278 12.4766 90.9922 13.7153L89.3308 16.5499C88.3847 15.5394 86.5933 14.7244 84.6722 14.7244C83.1723 14.7244 82.1959 15.4082 82.1959 16.2887C82.1959 18.6339 91.5119 16.6799 91.5119 23.0313C91.5119 25.8988 89.0696 28.0825 84.7037 28.0825C81.9674 28.0825 79.3284 27.169 77.667 25.6377Z" fill="#121F26"/>
<path d="M106.726 19.8071C106.726 17.3625 105.26 15.2456 102.686 15.2456C100.113 15.2456 98.6787 17.3625 98.6787 19.8071C98.6787 22.2823 100.113 24.4004 102.686 24.4004C105.26 24.4004 106.726 22.2823 106.726 19.8071ZM94.3784 19.8071C94.3784 15.3429 97.5056 11.5646 102.686 11.5646C107.899 11.5646 111.026 15.3429 111.026 19.8071C111.026 24.3019 107.899 28.0814 102.686 28.0814C97.5056 28.0814 94.3784 24.3019 94.3784 19.8071Z" fill="#121F26"/>
<path d="M115.813 27.6885V15.5694H113.207V11.954H115.813V11.1061C115.813 7.75068 117.964 5.63373 121.123 5.63373C122.621 5.63373 124.219 6.02372 125.228 7.09954L123.665 9.54323C123.241 9.11943 122.687 8.89091 121.938 8.89091C120.797 8.89091 119.984 9.64029 119.984 11.1061V11.954H123.175V15.5694H119.984V27.6885H115.813Z" fill="#121F26"/>
<path d="M127.184 23.7817V15.5721H124.578V11.9564H127.184V7.65607H131.354V11.9564H134.546V15.5721H131.354V22.6741C131.354 23.6517 131.875 24.4011 132.787 24.4011C133.407 24.4011 133.992 24.1717 134.222 23.9446L135.101 27.0718C134.481 27.6256 133.374 28.0821 131.647 28.0821C128.748 28.0821 127.184 26.5836 127.184 23.7817" fill="#121F26"/>
</svg>
